<?xml version="1.0" encoding="UTF-8" ?>
<!DOCTYPE svg PUBLIC "-//W3C//DTD SVG 1.1//EN" "http://www.w3.org/Graphics/SVG/1.1/DTD/svg11.dtd">
<svg width="367.5pt" height="153pt" viewBox="0 0 720 300" version="1.1" xmlns="http://www.w3.org/2000/svg">
<g id="#fefefeff">
</g>
<g id="#000000ff">
<path fill="#000000" opacity="1.00" d=" M 321.51 1.48 C 324.35 0.03 326.50 3.29 327.84 5.31 C 329.30 7.07 326.90 8.69 325.96 10.01 C 316.21 19.95 306.29 29.95 294.58 37.59 C 292.82 38.80 290.87 39.67 288.84 40.30 C 289.42 38.55 290.43 36.99 291.61 35.59 C 301.36 24.03 311.46 12.76 321.51 1.48 Z" />
<path fill="#000000" opacity="1.00" d=" M 161.67 31.67 C 164.25 29.64 166.71 27.38 169.77 26.08 C 169.36 31.68 165.46 36.04 162.59 40.59 C 148.02 61.74 131.64 81.56 115.52 101.53 C 101.43 119.09 86.71 136.14 72.90 153.92 C 93.08 144.72 113.32 135.64 133.68 126.84 C 137.16 125.47 138.83 121.88 141.46 119.45 C 146.12 114.38 153.78 112.30 160.28 114.73 C 162.07 118.41 161.16 122.47 161.62 126.36 C 163.99 127.89 166.85 128.69 169.66 128.23 C 180.27 126.74 189.75 121.26 198.74 115.73 C 202.30 113.60 205.45 110.74 209.31 109.12 C 210.74 112.56 212.86 116.07 212.21 119.95 C 211.08 127.82 205.03 133.50 200.44 139.54 C 199.08 141.12 198.46 143.11 198.17 145.15 C 200.05 145.68 201.91 146.60 203.91 146.42 C 206.86 145.34 209.63 143.82 212.52 142.57 C 219.49 139.41 227.03 137.04 232.97 132.02 C 235.86 129.63 236.06 125.62 237.63 122.45 C 241.06 115.30 246.98 108.69 254.99 106.90 C 258.79 105.61 263.23 107.66 264.90 111.25 C 266.22 114.86 265.31 119.02 263.01 122.05 C 259.06 127.83 252.33 130.53 246.26 133.47 C 247.14 135.86 247.73 139.75 251.04 139.63 C 267.11 140.86 282.30 133.73 295.89 125.94 C 333.27 103.86 363.78 72.48 397.86 45.97 C 405.84 39.91 414.25 34.01 424.06 31.39 C 421.55 37.76 417.39 43.28 414.04 49.21 C 410.07 56.16 405.68 62.87 401.85 69.90 C 411.74 62.52 420.96 54.31 430.63 46.65 C 433.81 44.23 436.54 41.17 440.12 39.30 C 444.14 37.03 449.05 36.78 453.51 37.67 C 456.99 39.44 455.65 44.22 454.97 47.25 C 449.40 58.66 438.59 66.06 430.21 75.23 C 428.57 77.41 425.88 79.87 426.75 82.85 C 429.19 85.09 434.29 85.69 433.74 89.97 C 433.09 97.82 425.69 102.58 421.84 108.89 C 418.55 113.04 416.71 119.28 420.09 123.92 C 421.58 126.73 425.10 126.68 427.79 126.05 C 436.47 124.12 444.50 120.19 452.58 116.61 C 466.75 110.32 478.16 99.54 490.99 91.10 C 492.86 89.51 495.16 90.90 496.95 91.86 C 495.40 96.89 491.65 100.87 490.14 105.92 C 489.19 108.73 489.40 111.74 489.37 114.66 C 493.74 114.83 498.29 115.07 502.41 113.32 C 512.63 109.25 520.49 101.28 529.39 95.09 C 527.93 91.32 527.91 86.87 530.68 83.67 C 531.82 81.16 534.67 81.20 537.02 81.08 C 538.07 83.99 537.68 87.39 539.00 90.13 C 542.45 92.09 546.77 91.22 550.45 92.68 C 550.63 96.11 550.95 99.93 548.81 102.88 C 546.14 106.50 542.02 108.64 539.10 112.02 C 541.79 113.05 543.96 114.94 545.82 117.10 C 561.59 107.90 577.67 99.21 594.24 91.52 C 600.39 88.86 606.51 85.86 613.13 84.50 C 616.43 83.94 621.15 84.18 622.27 88.08 C 623.41 93.48 621.81 99.41 624.50 104.48 C 625.90 107.25 629.50 106.75 632.01 106.16 C 644.00 102.49 655.10 96.37 665.55 89.53 C 671.38 85.54 677.39 81.38 681.41 75.45 C 683.05 73.32 682.62 70.50 682.96 67.99 C 683.36 60.33 687.02 53.33 691.05 46.98 C 695.86 40.18 701.73 33.25 709.97 30.71 C 713.71 29.66 717.39 31.21 720.00 33.90 L 720.00 38.55 C 715.60 52.58 705.81 64.43 694.48 73.52 C 694.31 74.88 695.11 76.12 695.49 77.38 C 699.02 85.84 698.62 96.07 693.81 103.97 C 690.63 109.22 686.34 113.74 681.46 117.44 C 667.46 128.30 650.80 134.93 634.27 140.92 C 602.33 151.82 569.12 158.21 536.23 165.49 C 533.20 165.85 531.47 168.53 529.52 170.54 C 523.20 177.35 515.37 183.34 506.17 185.46 C 501.89 185.97 496.95 186.41 493.29 183.71 C 490.89 181.63 489.43 178.74 487.70 176.14 C 387.58 205.88 285.26 227.81 185.79 259.81 C 152.15 270.96 118.65 283.05 86.99 299.06 C 84.59 300.04 79.22 298.62 80.75 295.20 C 88.78 288.77 98.52 285.00 107.84 280.85 C 135.01 269.69 163.10 260.99 191.14 252.30 C 288.53 222.98 387.18 198.09 485.01 170.34 C 488.83 169.74 488.53 165.02 490.58 162.47 C 501.72 145.74 518.16 133.32 535.40 123.41 C 537.68 122.46 538.33 119.35 536.32 117.75 C 533.14 115.66 529.13 115.77 525.50 115.20 C 525.63 114.10 525.58 112.96 525.96 111.90 C 529.32 108.07 534.84 107.10 538.27 103.34 C 539.24 100.65 537.08 97.64 534.13 98.63 C 525.04 104.85 517.45 113.26 507.47 118.19 C 500.15 121.73 492.31 125.41 483.96 124.76 C 481.28 124.75 478.43 123.37 477.39 120.78 C 475.83 117.49 476.73 113.75 476.93 110.28 C 468.41 112.35 461.14 117.41 453.58 121.60 C 441.87 128.59 428.96 135.38 414.92 134.85 C 408.61 135.21 405.19 127.78 405.82 122.34 C 408.00 110.25 418.12 102.34 424.93 92.89 C 421.70 88.56 415.76 88.10 412.19 84.21 C 420.06 74.02 432.11 68.06 439.61 57.55 C 442.40 53.45 445.81 49.49 446.65 44.44 C 442.09 44.50 438.41 47.52 434.74 49.84 C 421.26 59.46 408.60 70.20 396.61 81.61 C 385.02 92.31 377.03 106.07 367.58 118.55 C 361.81 126.07 356.61 134.12 349.87 140.83 C 347.57 143.67 342.65 143.44 340.61 140.45 C 340.07 138.81 341.35 137.46 342.22 136.23 C 358.37 115.54 375.78 95.62 388.88 72.75 C 391.91 67.20 394.77 61.38 395.82 55.08 C 384.69 61.84 374.98 70.65 365.41 79.41 C 350.51 92.84 336.19 106.97 320.29 119.23 C 303.09 132.40 283.84 144.49 261.95 147.40 C 256.02 147.84 249.93 148.26 244.07 147.06 C 239.66 146.05 236.93 142.17 235.42 138.18 C 224.96 141.01 216.38 147.90 206.99 152.98 C 202.43 155.26 197.28 157.29 192.10 156.17 C 188.11 154.93 186.49 149.76 187.79 146.06 C 190.29 139.61 196.48 135.88 200.98 130.97 C 203.14 128.75 205.65 125.82 204.54 122.48 C 204.14 120.40 201.53 119.46 199.91 120.85 C 191.43 126.34 182.73 132.04 172.76 134.34 C 167.93 135.56 162.41 132.88 158.09 136.07 C 153.04 139.48 151.20 145.73 146.66 149.64 C 142.50 153.52 136.45 154.36 130.99 154.16 C 128.74 154.20 128.23 151.70 127.71 150.00 C 127.13 145.00 129.27 140.24 129.99 135.36 C 108.65 143.91 87.10 152.39 67.50 164.56 C 63.47 167.09 59.13 169.32 55.88 172.88 C 52.84 176.18 49.69 179.38 46.94 182.93 C 41.49 190.07 34.86 196.17 28.46 202.43 C 21.59 208.57 14.90 215.21 6.74 219.65 C 4.40 221.22 1.57 220.40 0.00 218.21 L 0.00 217.29 C 3.03 209.23 9.68 203.52 15.30 197.30 C 23.38 189.72 31.02 181.43 40.62 175.71 C 45.03 172.85 48.25 168.61 51.84 164.86 C 54.48 161.85 57.80 159.41 59.86 155.92 C 73.92 131.50 93.89 111.36 112.26 90.25 C 120.16 81.41 128.12 72.49 134.64 62.56 C 131.52 62.30 128.34 62.26 125.31 63.13 C 114.47 66.00 105.22 72.70 96.45 79.42 C 91.40 83.03 89.17 89.39 83.86 92.71 C 81.71 94.17 78.97 93.39 76.56 93.37 C 76.21 90.40 76.14 87.24 77.72 84.57 C 82.13 76.72 88.35 69.97 95.25 64.25 C 102.05 58.67 111.29 59.68 119.42 58.22 C 125.51 57.30 131.53 55.23 136.49 51.49 C 144.97 45.00 153.22 38.20 161.67 31.67 M 708.41 37.60 C 703.92 39.90 701.29 44.59 698.50 48.61 C 695.71 53.38 692.81 58.48 692.50 64.12 C 692.85 64.41 693.56 64.99 693.91 65.28 C 702.68 61.27 709.76 53.30 712.38 43.98 C 713.12 41.33 712.20 36.09 708.41 37.60 M 684.39 83.43 C 668.39 93.75 653.20 105.59 635.82 113.59 C 631.69 115.67 626.95 116.39 622.42 115.48 C 617.48 112.11 617.05 105.81 616.30 100.43 C 616.36 98.53 613.84 98.96 613.22 100.20 C 609.60 104.58 605.65 108.73 600.98 112.01 C 594.51 116.80 586.89 121.76 578.45 120.37 C 575.31 117.65 576.71 113.03 576.34 109.42 C 570.15 110.88 564.59 114.09 558.88 116.76 C 554.72 119.08 550.05 120.59 546.38 123.70 C 547.75 130.35 549.17 137.22 548.26 144.03 C 547.75 149.23 544.92 153.63 541.96 157.76 C 553.62 156.42 565.09 153.70 576.57 151.29 C 598.88 146.25 621.04 140.12 642.23 131.44 C 657.20 125.20 672.58 117.81 683.06 105.01 C 686.72 99.19 690.25 91.68 687.06 84.88 C 686.86 83.61 685.60 82.52 684.39 83.43 M 589.65 103.66 C 588.08 104.87 588.56 107.05 588.28 108.77 C 590.28 109.70 592.69 109.93 594.75 109.03 C 599.90 107.06 603.63 102.77 606.90 98.51 C 600.87 98.73 594.46 99.74 589.65 103.66 M 246.11 126.87 C 249.36 125.90 252.65 124.52 254.92 121.89 C 256.85 119.37 257.59 116.17 257.83 113.06 C 251.13 113.72 247.17 120.83 246.11 126.87 M 146.47 123.45 C 140.83 127.42 137.07 134.65 138.54 141.60 C 139.01 143.30 140.99 144.33 142.67 143.75 C 149.73 140.80 153.23 131.97 150.58 124.87 C 150.24 122.98 147.86 121.78 146.47 123.45 M 521.62 140.73 C 512.86 148.26 503.46 155.92 498.43 166.58 C 500.27 166.54 502.13 166.32 503.92 165.78 C 512.75 163.53 521.55 161.12 530.49 159.31 C 538.70 151.19 543.58 138.48 539.98 127.07 C 533.45 131.06 527.76 136.21 521.62 140.73 M 498.43 173.76 C 498.17 174.06 497.65 174.66 497.39 174.97 C 501.35 180.04 509.01 178.67 514.08 176.11 C 517.21 174.17 521.16 172.13 522.00 168.21 C 514.07 169.74 506.31 172.01 498.43 173.76 M 28.03 191.09 C 22.89 194.85 18.75 199.75 14.55 204.50 C 13.38 205.80 12.47 207.31 11.96 209.00 C 16.00 207.81 18.71 204.42 21.75 201.75 C 25.43 197.86 29.90 194.47 32.32 189.59 C 30.79 189.70 29.27 190.17 28.03 191.09 Z" />
<path fill="#000000" opacity="1.00" d=" M 509.14 47.95 C 509.71 43.95 513.35 41.37 517.01 40.37 C 518.15 41.05 519.36 41.65 520.39 42.52 C 521.00 45.05 521.43 48.31 519.08 50.10 C 516.68 52.23 514.24 56.05 510.54 54.48 C 508.71 52.82 508.13 50.21 509.14 47.95 Z" />
</g>
</svg>
